<?xml version="1.0" standalone="no"?>
<!DOCTYPE svg PUBLIC "-//W3C//DTD SVG 20010904//EN"
 "http://www.w3.org/TR/2001/REC-SVG-20010904/DTD/svg10.dtd">
<svg version="1.0" xmlns="http://www.w3.org/2000/svg"
 width="200.000000pt" height="151.000000pt" viewBox="0 0 200 151.000000"
 preserveAspectRatio="xMidYMid meet">

<g transform="translate(0.000000,151.000000) scale(0.100000,-0.100000)"
fill="#000000" stroke="none">
<path d="M110 1422 c0 -11 27 -56 60 -102 84 -116 102 -170 103 -300 0 -58 -5
-125 -11 -150 -18 -71 -14 -179 7 -226 35 -78 141 -176 331 -306 93 -65 250
-162 310 -193 l30 -16 0 449 0 449 -46 18 c-97 37 -153 138 -140 254 l6 56
-65 43 -65 42 -260 0 c-246 0 -260 -1 -260 -18z"/>
<path d="M1303 1397 l-63 -42 6 -61 c12 -115 -43 -212 -140 -249 l-46 -18 0
-449 0 -449 30 16 c17 9 72 41 122 71 287 174 473 328 519 427 21 48 25 155 7
227 -6 25 -11 92 -10 150 0 131 19 185 102 300 93 128 106 120 -202 119 l-263
0 -62 -42z"/>
</g>
</svg>
